<svg width="27" height="27" viewBox="0 0 27 27" fill="none" xmlns="http://www.w3.org/2000/svg">
<path d="M21.2 15.4C23.6301 15.4 25.6 17.6 25.6 19.25C25.6 20.1613 24.8613 20.9 23.95 20.9H23.4M19 12.1C20.8226 12.1 22.3 10.6225 22.3 8.8C22.3 6.97746 20.8226 5.5 19 5.5M5.80002 15.4C3.36997 15.4 1.40002 17.6 1.40002 19.25C1.40002 20.1613 2.13875 20.9 3.05002 20.9H3.60002M8.00002 12.1C6.17748 12.1 4.70002 10.6225 4.70002 8.8C4.70002 6.97746 6.17748 5.5 8.00002 5.5M18.45 20.9H8.55002C7.63875 20.9 6.90002 20.1613 6.90002 19.25C6.90002 16.5 10.2 15.4 13.5 15.4C16.8 15.4 20.1 16.5 20.1 19.25C20.1 20.1613 19.3613 20.9 18.45 20.9ZM16.8 8.8C16.8 10.6225 15.3226 12.1 13.5 12.1C11.6775 12.1 10.2 10.6225 10.2 8.8C10.2 6.97746 11.6775 5.5 13.5 5.5C15.3226 5.5 16.8 6.97746 16.8 8.8Z" stroke="black" stroke-width="1.65" stroke-linecap="round" stroke-linejoin="round"/>
</svg>
